<svg viewBox="4 4 16 16" width="16" height="16" xmlns="http://www.w3.org/2000/svg">
  <path fill="currentColor"
        d="M16 10c1.654 0 3-1.346 3-3s-1.346-3-3-3-3 1.346-3 3c0 .223.029.439.075.649l-3.22 2.012A2.97 2.97 0 008 9c-1.654 0-3 1.346-3 3s1.346 3 3 3a2.97 2.97 0 001.855-.661l3.22 2.012c-.046.21-.075.426-.075.649 0 1.654 1.346 3 3 3s3-1.346 3-3-1.346-3-3-3a2.97 2.97 0 00-1.855.661l-3.22-2.012c.046-.21.075-.426.075-.649 0-.223-.029-.439-.075-.649l3.22-2.012A2.97 2.97 0 0016 10z"/>

</svg>
