<svg viewBox="0 0 84 36" width="84" height="36" xmlns="http://www.w3.org/2000/svg">
  <path
    d="M30.464 17.184c0 5.99-1.648 10.605-4.946 13.845s-7.933 4.86-13.907 4.86H0V0h12.421c5.76 0 10.208 1.473 13.342 4.419 3.135 2.945 4.702 7.2 4.701 12.765zm-10.064.343c0-3.29-.65-5.728-1.952-7.315-1.301-1.587-3.277-2.381-5.928-2.381H9.697v20.105h2.16c2.945 0 5.106-.855 6.48-2.565 1.375-1.71 2.062-4.325 2.063-7.844z"
    fill="#EE312D"/>
  <path
    d="M20.337 18.706c0-5.99 1.649-10.605 4.946-13.845C28.581 1.62 33.217 0 39.19 0H50.8v35.89H38.38c-5.76 0-10.208-1.473-13.342-4.42-3.135-2.945-4.702-7.2-4.701-12.764zm10.065-.344c0 3.29.65 5.728 1.951 7.315 1.301 1.588 3.277 2.382 5.929 2.382h2.823V7.954h-2.16c-2.946 0-5.106.855-6.481 2.565s-2.062 4.325-2.062 7.843z"
    fill="#26BDCF"/>
  <path
    d="M83.517 17.184c0 5.99-1.649 10.605-4.946 13.845-3.298 3.24-7.934 4.86-13.907 4.86H53.053V0h12.421c5.76 0 10.208 1.473 13.342 4.419 3.134 2.945 4.701 7.2 4.701 12.765zm-10.065.343c0-3.29-.65-5.728-1.951-7.315-1.301-1.587-3.278-2.381-5.929-2.381H62.75v20.105h2.16c2.946 0 5.106-.855 6.48-2.565 1.374-1.71 2.062-4.325 2.064-7.844z"
    fill="#B2B2B2"/>
</svg>
