<svg viewBox="2 2 20 20" width="20" height="20" xmlns="http://www.w3.org/2000/svg">
  <path fill="currentColor"
        d="M12 22C6.5 22 2 17.5 2 12S6.5 2 12 2s10 4.5 10 10-4.5 10-10 10zm8.417-8.667c-.334-.083-2.667-.833-5.334-.333 1.084 3.083 1.584 5.583 1.667 6.083 1.917-1.25 3.333-3.333 3.667-5.75zm-5.084 6.584c-.166-.75-.583-3.334-1.833-6.5h-.083c-4.834 1.666-6.584 5-6.667 5.333C8.167 19.917 10 20.583 12 20.583a8.81 8.81 0 003.333-.666zM5.667 17.75c.166-.333 2.5-4.25 6.916-5.667.084 0 .25-.083.334-.083-.25-.5-.417-1-.667-1.417-4.25 1.25-8.417 1.25-8.75 1.25v.25c0 2.084.75 4.167 2.167 5.667zm-2-7.5c.416 0 3.916 0 7.916-1-1.416-2.5-2.916-4.667-3.166-4.917C6 5.417 4.167 7.583 3.667 10.25zM10 3.75c.25.333 1.75 2.417 3.167 5 3-1.167 4.333-2.833 4.5-3.083C16.167 4.25 14.167 3.5 12 3.5c-.667 0-1.333.083-2 .25zm8.583 2.833c-.166.25-1.583 2.084-4.75 3.334.167.416.417.833.584 1.25.083.166.083.333.166.416 2.834-.333 5.667.25 5.917.25 0-1.916-.667-3.75-1.917-5.25z"
  />
</svg>
